<svg xmlns="http://www.w3.org/2000/svg" xmlns:xlink="http://www.w3.org/1999/xlink" width="331" height="166.988" viewBox="0 0 331 166.988">
  <defs>
    <style>
      .cls-1 {
        fill: url(#linear-gradient);
      }

      .cls-2 {
        fill: url(#linear-gradient-2);
      }

      .cls-13, .cls-19, .cls-22, .cls-23, .cls-24, .cls-3 {
        fill: none;
      }

      .cls-4 {
        fill: url(#linear-gradient-3);
      }

      .cls-5 {
        fill: #606060;
      }

      .cls-6 {
        fill: url(#linear-gradient-4);
      }

      .cls-7 {
        fill: #1a1a1a;
      }

      .cls-8 {
        fill: #919191;
      }

      .cls-9 {
        fill: url(#linear-gradient-5);
      }

      .cls-10 {
        fill: #fff;
      }

      .cls-11 {
        fill: #f09926;
      }

      .cls-12 {
        fill: #e1e1e1;
      }

      .cls-13, .cls-24, .cls-25, .cls-26 {
        stroke: rgba(28,172,176,0.38);
        stroke-linecap: round;
      }

      .cls-14 {
        fill: url(#linear-gradient-6);
      }

      .cls-15 {
        fill: url(#linear-gradient-8);
      }

      .cls-16, .cls-21 {
        fill: #383838;
      }

      .cls-16, .cls-19 {
        stroke: #777;
        stroke-miterlimit: 10;
      }

      .cls-16 {
        stroke-width: 0.237px;
      }

      .cls-17 {
        fill: #ccc;
      }

      .cls-18 {
        fill: #777;
      }

      .cls-19 {
        stroke-width: 1.201px;
      }

      .cls-20 {
        fill: url(#linear-gradient-10);
      }

      .cls-21, .cls-22 {
        fill-rule: evenodd;
      }

      .cls-23 {
        stroke: #414755;
      }

      .cls-24 {
        stroke-width: 0.4px;
      }

      .cls-25, .cls-26 {
        fill: rgba(0,0,0,0);
      }

      .cls-26 {
        stroke-width: 0.5px;
      }

      .cls-27 {
        filter: url(#União_8-3);
      }

      .cls-28 {
        filter: url(#Caminho_240-3);
      }

      .cls-29 {
        filter: url(#União_8-2);
      }

      .cls-30 {
        filter: url(#Caminho_240-2);
      }

      .cls-31 {
        filter: url(#União_8);
      }

      .cls-32 {
        filter: url(#Caminho_240);
      }
    </style>
    <linearGradient id="linear-gradient" x1="0.5" y1="1" x2="0.5" gradientUnits="objectBoundingBox">
      <stop offset="0" stop-color="#bebebe"/>
      <stop offset="0.264" stop-color="#dcdcdc"/>
      <stop offset="0.423" stop-color="#dcdcdc"/>
      <stop offset="0.791" stop-color="#b3b3b3"/>
      <stop offset="1" stop-color="#b8b8b8"/>
    </linearGradient>
    <linearGradient id="linear-gradient-2" y1="0.5" x2="1" y2="0.5" gradientUnits="objectBoundingBox">
      <stop offset="0" stop-color="#bebebe"/>
      <stop offset="0.037" stop-color="#a8a8a8"/>
      <stop offset="0.098" stop-color="#eaeaea"/>
      <stop offset="0.902" stop-color="#eaeaea"/>
      <stop offset="0.969" stop-color="#a8a8a8"/>
      <stop offset="1" stop-color="#bebebe"/>
    </linearGradient>
    <linearGradient id="linear-gradient-3" y1="0.5" x2="1" y2="0.5" gradientUnits="objectBoundingBox">
      <stop offset="0" stop-color="#c9c9c9"/>
      <stop offset="0.989" stop-color="#eaeaea"/>
    </linearGradient>
    <linearGradient id="linear-gradient-4" x1="0.5" y1="1.217" x2="0.5" y2="-0.028" gradientUnits="objectBoundingBox">
      <stop offset="0" stop-color="#e1e2e2" stop-opacity="0"/>
      <stop offset="0.379" stop-color="#e5e5e5" stop-opacity="0.114"/>
      <stop offset="0.716" stop-color="#eff0f0" stop-opacity="0.216"/>
      <stop offset="1" stop-color="#fff" stop-opacity="0.302"/>
    </linearGradient>
    <linearGradient id="linear-gradient-5" x1="0.5" x2="0.5" y2="1" gradientUnits="objectBoundingBox">
      <stop offset="0" stop-color="#fff"/>
      <stop offset="1" stop-color="#a5fdff"/>
    </linearGradient>
    <linearGradient id="linear-gradient-6" x1="0.5" x2="0.5" y2="1" gradientUnits="objectBoundingBox">
      <stop offset="0" stop-color="#00acea"/>
      <stop offset="1" stop-color="#00efd1"/>
    </linearGradient>
    <linearGradient id="linear-gradient-8" x1="0.5" x2="0.5" y2="1" gradientUnits="objectBoundingBox">
      <stop offset="0" stop-color="#00ffdf"/>
      <stop offset="1" stop-color="#008fc3"/>
    </linearGradient>
    <linearGradient id="linear-gradient-10" x1="0.5" x2="0.5" y2="1" gradientUnits="objectBoundingBox">
      <stop offset="0" stop-color="#fff"/>
      <stop offset="1" stop-color="#e9fffc"/>
    </linearGradient>
    <filter id="Caminho_240" x="55.108" y="22.374" width="71.888" height="74.849" filterUnits="userSpaceOnUse">
      <feOffset dy="3" input="SourceAlpha"/>
      <feGaussianBlur stdDeviation="3" result="blur"/>
      <feFlood flood-opacity="0.161"/>
      <feComposite operator="in" in2="blur"/>
      <feComposite in="SourceGraphic"/>
    </filter>
    <filter id="União_8" x="71.561" y="34.694" width="47.949" height="48.08" filterUnits="userSpaceOnUse">
      <feOffset dy="4" input="SourceAlpha"/>
      <feGaussianBlur stdDeviation="2.5" result="blur-2"/>
      <feFlood flood-opacity="0.161"/>
      <feComposite operator="in" in2="blur-2"/>
      <feComposite in="SourceGraphic"/>
    </filter>
    <filter id="Caminho_240-2" x="126.108" y="103.417" width="41.038" height="42.304" filterUnits="userSpaceOnUse">
      <feOffset dy="3" input="SourceAlpha"/>
      <feGaussianBlur stdDeviation="3" result="blur-3"/>
      <feFlood flood-opacity="0.161"/>
      <feComposite operator="in" in2="blur-3"/>
      <feComposite in="SourceGraphic"/>
    </filter>
    <filter id="União_8-2" x="134.001" y="110.115" width="29.086" height="29.142" filterUnits="userSpaceOnUse">
      <feOffset dy="4" input="SourceAlpha"/>
      <feGaussianBlur stdDeviation="2.5" result="blur-4"/>
      <feFlood flood-opacity="0.161"/>
      <feComposite operator="in" in2="blur-4"/>
      <feComposite in="SourceGraphic"/>
    </filter>
    <filter id="Caminho_240-3" x="194.108" y="62.775" width="71.509" height="74.449" filterUnits="userSpaceOnUse">
      <feOffset dy="3" input="SourceAlpha"/>
      <feGaussianBlur stdDeviation="3" result="blur-5"/>
      <feFlood flood-opacity="0.161"/>
      <feComposite operator="in" in2="blur-5"/>
      <feComposite in="SourceGraphic"/>
    </filter>
    <filter id="União_8-3" x="210.456" y="75.025" width="47.717" height="47.847" filterUnits="userSpaceOnUse">
      <feOffset dy="4" input="SourceAlpha"/>
      <feGaussianBlur stdDeviation="2.5" result="blur-6"/>
      <feFlood flood-opacity="0.161"/>
      <feComposite operator="in" in2="blur-6"/>
      <feComposite in="SourceGraphic"/>
    </filter>
  </defs>
  <g id="Grupo_187" data-name="Grupo 187" transform="translate(-22 -186.995)">
    <g id="レイヤー_1" transform="translate(22 186.995)">
      <g id="Grupo_178" data-name="Grupo 178" transform="translate(60.072 132.277)">
        <path id="Caminho_254" data-name="Caminho 254" class="cls-1" d="M252.787,458.124a27.456,27.456,0,0,0,5.286-.483c1.114-.269,1.275-.5,1.275-.675a.748.748,0,0,0-.3-.5c-.221-.209-5.581-5.112-5.581-5.112a9.184,9.184,0,0,1-2.79-5.367c-.322-1.879-1.449-14.17-1.449-14.17H206.218s-1.127,12.292-1.449,14.17a9.188,9.188,0,0,1-2.791,5.367s-5.36,4.9-5.581,5.112a.746.746,0,0,0-.295.5c0,.179.161.407,1.275.675a27.453,27.453,0,0,0,5.286.483Z" transform="translate(-196.102 -431.812)"/>
        <path id="Caminho_255" data-name="Caminho 255" class="cls-2" d="M259.348,514.628c0,.179-.161.407-1.275.675a27.454,27.454,0,0,1-5.286.483H202.662a27.451,27.451,0,0,1-5.286-.483c-1.114-.269-1.275-.5-1.275-.675v-.7c0,.179.161.407,1.275.675a27.455,27.455,0,0,0,5.286.483h50.125a27.459,27.459,0,0,0,5.286-.483c1.114-.269,1.275-.5,1.275-.675Z" transform="translate(-196.101 -488.772)"/>
      </g>
      <path id="Caminho_256" data-name="Caminho 256" class="cls-3" d="M183.8,127.2a5.127,5.127,0,0,1-5.112,5.112H5.112A5.127,5.127,0,0,1,0,127.2V5.111A5.127,5.127,0,0,1,5.112,0H178.687A5.127,5.127,0,0,1,183.8,5.111Z"/>
      <g id="Grupo_179" data-name="Grupo 179">
        <path id="Caminho_257" data-name="Caminho 257" d="M183.8,5.111A5.127,5.127,0,0,0,178.687,0H5.112A5.127,5.127,0,0,0,0,5.111V111.268H183.8Z"/>
        <path id="Caminho_258" data-name="Caminho 258" class="cls-4" d="M0,363.229v15.93a5.127,5.127,0,0,0,5.112,5.112H178.687a5.127,5.127,0,0,0,5.112-5.112v-15.93Z" transform="translate(0 -251.961)"/>
      </g>
      <path id="Caminho_266" data-name="Caminho 266" class="cls-5" d="M0,0H166.407V94.087H0Z" transform="translate(8.64 9.18)"/>
      <g id="Grupo_180" data-name="Grupo 180" transform="translate(106.648)">
        <path id="Caminho_259" data-name="Caminho 259" class="cls-6" d="M425.3,5.14A5.126,5.126,0,0,0,420.215,0H348.147l45.148,111.2h32Z" transform="translate(-348.147)"/>
      </g>
      <g id="Grupo_181" data-name="Grupo 181" transform="translate(87.523 115.77)">
        <path id="Caminho_260" data-name="Caminho 260" d="M288.2,380.327a4.036,4.036,0,0,1,1.1.189,3.994,3.994,0,0,0,.866.188,3.192,3.192,0,0,0,.9-.213,3.4,3.4,0,0,1,1.08-.214,2.3,2.3,0,0,1,1.335.4,3.38,3.38,0,0,1,.653.628,4.175,4.175,0,0,0-.713.738,2.207,2.207,0,0,0-.409,1.293,2.389,2.389,0,0,0,.433,1.4,1.88,1.88,0,0,0,.988.787,6.229,6.229,0,0,1-.769,1.568q-.811,1.225-1.61,1.225a2.8,2.8,0,0,1-.878-.2,2.847,2.847,0,0,0-.939-.2,2.458,2.458,0,0,0-.9.207,2.239,2.239,0,0,1-.823.214q-.957,0-1.878-1.622a6.3,6.3,0,0,1-.921-3.148,3.694,3.694,0,0,1,.7-2.335,2.171,2.171,0,0,1,1.781-.9m3.842-2.4a.757.757,0,0,1,.03.14,1.172,1.172,0,0,1,.006.123,2.333,2.333,0,0,1-.183.853,2.527,2.527,0,0,1-.579.86,1.878,1.878,0,0,1-.677.452,3.268,3.268,0,0,1-.646.1,2.813,2.813,0,0,1,.482-1.6,2.5,2.5,0,0,1,1.568-.926" transform="translate(-285.715 -377.924)"/>
      </g>
      <g id="Grupo_182" data-name="Grupo 182" transform="translate(91.878 2.338)">
        <ellipse id="Elipse_248" data-name="Elipse 248" class="cls-7" cx="0.188" cy="0.188" rx="0.188" ry="0.188" transform="translate(0 0.025)"/>
        <ellipse id="Elipse_249" data-name="Elipse 249" class="cls-5" cx="0.096" cy="0.096" rx="0.096" ry="0.096" transform="translate(0.039)"/>
        <ellipse id="Elipse_250" data-name="Elipse 250" class="cls-8" cx="0.101" cy="0.101" rx="0.101" ry="0.101" transform="translate(0.169 0.335)"/>
      </g>
      <g id="Componente_21_2" data-name="Componente 21 – 2" transform="translate(65.337 28.619)">
        <g id="Grupo_184" data-name="Grupo 184" transform="translate(0)">
          <path id="Caminho_240-4" data-name="Caminho 240" class="cls-9" d="M26.309,0c14.53,0,26.309,12.426,26.309,27.754S40.839,55.509,26.309,55.509,0,43.083,0,27.754,11.779,0,26.309,0Z"/>
          <rect id="Retângulo_1474" data-name="Retângulo 1474" class="cls-10" width="22.139" height="25.919" transform="translate(14.579 15.011)"/>
          <g id="Caminho_241" data-name="Caminho 241" transform="translate(14.6 13.623)">
            <path id="Caminho_251" data-name="Caminho 251" class="cls-10" d="M21.34,28.03H3.348A1.855,1.855,0,0,1,1.5,26.173V3.357A1.855,1.855,0,0,1,3.348,1.5H21.34a1.855,1.855,0,0,1,1.848,1.857V26.173A1.855,1.855,0,0,1,21.34,28.03Z" transform="translate(-0.633 -0.633)"/>
            <path id="Caminho_252" data-name="Caminho 252" class="cls-11" d="M2.716,1.735a.987.987,0,0,0-.981.99V25.541a.987.987,0,0,0,.981.99H20.708a.987.987,0,0,0,.981-.99V2.724a.987.987,0,0,0-.981-.99H2.716M2.716,0H20.708a2.72,2.72,0,0,1,2.716,2.724V25.541a2.72,2.72,0,0,1-2.716,2.724H2.716A2.72,2.72,0,0,1,0,25.541V2.724A2.72,2.72,0,0,1,2.716,0Z" transform="translate(0 0)"/>
          </g>
          <path id="Caminho_242" data-name="Caminho 242" class="cls-12" d="M-3.23,0C-1.446,0,0,1.8,0,4.013c0,.457,1.44.4,1.908,2.812a.7.7,0,0,1-.666.9H-7.543c-.9,0-.958-.537-.911-.867.327-2.378,2-2.511,2-2.844C-6.459,1.8-5.013,0-3.23,0Z" transform="translate(29.512 9.588)"/>
          <path id="Caminho_243" data-name="Caminho 243" class="cls-13" d="M124.66,207.106a23.632,23.632,0,0,1,7.041,0,15.06,15.06,0,0,0,3.263.282,23.851,23.851,0,0,0,3.411-.282" transform="translate(-105.117 -187.839)"/>
          <path id="Caminho_244" data-name="Caminho 244" class="cls-13" d="M124.66,207.106a23.632,23.632,0,0,1,7.041,0,15.06,15.06,0,0,0,3.263.282,23.851,23.851,0,0,0,3.411-.282" transform="translate(-105.117 -185.455)"/>
          <path id="Caminho_245" data-name="Caminho 245" class="cls-13" d="M124.66,207.106a23.632,23.632,0,0,1,7.041,0,15.06,15.06,0,0,0,3.263.282,23.851,23.851,0,0,0,3.411-.282" transform="translate(-105.117 -183.071)"/>
          <path id="Caminho_246" data-name="Caminho 246" class="cls-13" d="M124.66,207.106a23.632,23.632,0,0,1,7.041,0,15.06,15.06,0,0,0,3.263.282,23.851,23.851,0,0,0,3.411-.282" transform="translate(-105.117 -180.688)"/>
          <path id="Caminho_247" data-name="Caminho 247" class="cls-13" d="M124.66,207.106a23.632,23.632,0,0,1,7.041,0,15.06,15.06,0,0,0,3.263.282,23.851,23.851,0,0,0,3.411-.282" transform="translate(-105.117 -178.304)"/>
          <path id="Caminho_248" data-name="Caminho 248" class="cls-13" d="M124.66,207.106a23.632,23.632,0,0,1,7.041,0,15.06,15.06,0,0,0,3.263.282,23.851,23.851,0,0,0,3.411-.282" transform="translate(-105.117 -175.92)"/>
          <path id="Caminho_249" data-name="Caminho 249" class="cls-13" d="M124.66,207.106a23.632,23.632,0,0,1,7.041,0,15.06,15.06,0,0,0,3.263.282,23.851,23.851,0,0,0,3.411-.282" transform="translate(-105.117 -173.536)"/>
          <path id="Caminho_250" data-name="Caminho 250" class="cls-13" d="M124.66,207.106a23.632,23.632,0,0,1,7.041,0,15.06,15.06,0,0,0,3.263.282,23.851,23.851,0,0,0,3.411-.282" transform="translate(-105.117 -171.152)"/>
          <g id="Grupo_173" data-name="Grupo 173" transform="translate(26.304 17.548)">
            <g id="cloud-computing_1_" data-name="cloud-computing (1)" transform="translate(0.193 0.294)">
              <path id="Caminho_233" data-name="Caminho 233" class="cls-10" d="M19.84,9.484h.01a4.005,4.005,0,0,1-4,4.012H4A4.005,4.005,0,0,1,0,9.484H0V9.443H0A5.041,5.041,0,0,1,4.433,4.43,5.768,5.768,0,0,1,15.754,6.007c0,.025,0,.049,0,.074a3.33,3.33,0,0,1,.658-.05A3.433,3.433,0,0,1,19.84,9.484Zm0,0" transform="translate(0 -0.222)"/>
              <g id="Grupo_164" data-name="Grupo 164" transform="translate(6.562 5.152)">
                <path id="Caminho_234" data-name="Caminho 234" class="cls-14" d="M211.839,141.982h0l-.016.017,0,0a.307.307,0,0,0-.065.136v.006a.236.236,0,0,0,0,.024c0,.006-.009.012-.009.019s-.009.008-.009.012h0c0,.007.009.014.009.021a.312.312,0,0,0,.058.152h0c.005.008.012.016.018.023l.007.007.014.015h0l.987.97a.307.307,0,0,0,.435,0,.3.3,0,0,0,0-.432l-.449-.437h1.03a1.873,1.873,0,1,0,0-3.747.308.308,0,1,0,0,.617,1.256,1.256,0,0,1,0,2.512H212.8l.453-.454a.31.31,0,1,0-.432-.443Zm0,0" transform="translate(-208.985 -137.816)"/>
                <path id="Caminho_235" data-name="Caminho 235" class="cls-14" d="M151.25,121.464a.309.309,0,1,0,0-.618,1.252,1.252,0,0,1,0-2.5h1.033l-.453.45a.309.309,0,1,0,.433.441l.987-.977h0l.016-.018,0,0a.307.307,0,0,0,.065-.136v-.005a.063.063,0,0,1,0-.025c0-.008.009-.012.009-.019s.009-.008.009-.012h0c0-.007-.009-.014-.009-.02a.313.313,0,0,0-.058-.152h0c-.005-.008-.012-.016-.018-.023l-.007-.007-.014-.015h0l-.987-.97a.308.308,0,0,0-.431.44l.449.44h-1.03a1.87,1.87,0,1,0,0,3.74Zm0,0" transform="translate(-149.38 -116.77)"/>
              </g>
            </g>
            <g id="cloud-computing" transform="translate(0 0)">
              <path id="Caminho_232" data-name="Caminho 232" class="cls-15" d="M19.362,7.141a3.7,3.7,0,0,0-2.641-1.1c-.116,0-.235,0-.356.009A6.093,6.093,0,0,0,10.292.233,6,6,0,0,0,6.6,1.491,6.153,6.153,0,0,0,4.5,4.472,5.344,5.344,0,0,0,0,9.763v.032A4.31,4.31,0,0,0,4.307,14.1H16.161a4.309,4.309,0,0,0,4.308-4.309.271.271,0,0,0-.011-.077,3.735,3.735,0,0,0-1.093-2.577Zm-3.2,6.346H4.307A3.692,3.692,0,0,1,.616,9.812C.616,9.8.611,9.8.611,9.8S.6,9.784.6,9.776v.005H.615A4.719,4.719,0,0,1,4.778,5.066a.313.313,0,0,0,.26-.227A5.46,5.46,0,0,1,15.756,6.329v.065a.308.308,0,0,0,.368.31,3.14,3.14,0,0,1,3.718,3.1.231.231,0,0,0,.009.065,3.692,3.692,0,0,1-3.69,3.616Zm0,0" transform="translate(0 -0.233)"/>
            </g>
          </g>
        </g>
      </g>
    </g>
    <g id="svg-laptop-icon-4" transform="translate(151.933 229.448)">
      <path id="Caminho_261" data-name="Caminho 261" class="cls-16" d="M179.328,25.9H22.942A8.706,8.706,0,0,0,14.2,34.642V142.7H188.313V34.642A9.076,9.076,0,0,0,179.328,25.9Z" transform="translate(-0.601 -25.9)"/>
      <path id="Caminho_262" data-name="Caminho 262" class="cls-5" d="M174.357,28.9H19.914A2.806,2.806,0,0,0,17,31.814v89.849H177.271V31.814A2.953,2.953,0,0,0,174.357,28.9Z" transform="translate(3.519 -21.676)"/>
      <path id="Caminho_263" data-name="Caminho 263" class="cls-17" d="M204.082,80.67H14.185A5.5,5.5,0,0,1,8.6,75.085V69.5H209.667v5.585A5.5,5.5,0,0,1,204.082,80.67Z" transform="translate(-8.6 36.376)"/>
      <path id="Caminho_264" data-name="Caminho 264" class="cls-18" d="M84.5,73.871H43.214A2.806,2.806,0,0,1,40.3,70.957V69.5H87.653v1.457A3.169,3.169,0,0,1,84.5,73.871Z" transform="translate(36.679 36.376)"/>
      <path id="Caminho_265" data-name="Caminho 265" class="cls-19" d="M91.97,71.7H80.8" transform="translate(94.527 39.518)"/>
      <g id="Grupo_185" data-name="Grupo 185" transform="translate(116.638 0)">
        <path id="Caminho_259-2" data-name="Caminho 259" class="cls-6" d="M419.774,11.026c0-2.732-1.419-10.121-7.945-11.026H348.147l41.711,108.062h29.567Z" transform="translate(-348.147)"/>
      </g>
      <g id="Componente_21_2-2" data-name="Componente 21 – 2" transform="translate(73.976 26.123)">
        <g id="Grupo_184-2" data-name="Grupo 184" transform="translate(0 0)">
          <path id="Caminho_240-5" data-name="Caminho 240" class="cls-20" d="M26.309,0c14.53,0,26.309,12.426,26.309,27.754S40.839,55.509,26.309,55.509,0,43.083,0,27.754,11.779,0,26.309,0Z"/>
          <rect id="Retângulo_1474-2" data-name="Retângulo 1474" class="cls-10" width="22.139" height="25.919" transform="translate(14.579 15.011)"/>
          <g id="Caminho_241-2" data-name="Caminho 241" transform="translate(14.6 13.623)">
            <path id="Caminho_251-2" data-name="Caminho 251" class="cls-10" d="M21.34,28.03H3.348A1.855,1.855,0,0,1,1.5,26.173V3.357A1.855,1.855,0,0,1,3.348,1.5H21.34a1.855,1.855,0,0,1,1.848,1.857V26.173A1.855,1.855,0,0,1,21.34,28.03Z" transform="translate(-0.633 -0.633)"/>
            <path id="Caminho_252-2" data-name="Caminho 252" class="cls-11" d="M2.716,1.735a.987.987,0,0,0-.981.99V25.541a.987.987,0,0,0,.981.99H20.708a.987.987,0,0,0,.981-.99V2.724a.987.987,0,0,0-.981-.99H2.716M2.716,0H20.708a2.72,2.72,0,0,1,2.716,2.724V25.541a2.72,2.72,0,0,1-2.716,2.724H2.716A2.72,2.72,0,0,1,0,25.541V2.724A2.72,2.72,0,0,1,2.716,0Z" transform="translate(0 0)"/>
          </g>
          <path id="Caminho_242-2" data-name="Caminho 242" class="cls-12" d="M-3.23,0C-1.446,0,0,1.8,0,4.013c0,.457,1.44.4,1.908,2.812a.7.7,0,0,1-.666.9H-7.543c-.9,0-.958-.537-.911-.867.327-2.378,2-2.511,2-2.844C-6.459,1.8-5.013,0-3.23,0Z" transform="translate(29.512 9.588)"/>
          <path id="Caminho_243-2" data-name="Caminho 243" class="cls-13" d="M124.66,207.106a23.632,23.632,0,0,1,7.041,0,15.06,15.06,0,0,0,3.263.282,23.851,23.851,0,0,0,3.411-.282" transform="translate(-105.117 -187.839)"/>
          <path id="Caminho_244-2" data-name="Caminho 244" class="cls-13" d="M124.66,207.106a23.632,23.632,0,0,1,7.041,0,15.06,15.06,0,0,0,3.263.282,23.851,23.851,0,0,0,3.411-.282" transform="translate(-105.117 -185.455)"/>
          <path id="Caminho_245-2" data-name="Caminho 245" class="cls-13" d="M124.66,207.106a23.632,23.632,0,0,1,7.041,0,15.06,15.06,0,0,0,3.263.282,23.851,23.851,0,0,0,3.411-.282" transform="translate(-105.117 -183.071)"/>
          <path id="Caminho_246-2" data-name="Caminho 246" class="cls-13" d="M124.66,207.106a23.632,23.632,0,0,1,7.041,0,15.06,15.06,0,0,0,3.263.282,23.851,23.851,0,0,0,3.411-.282" transform="translate(-105.117 -180.688)"/>
          <path id="Caminho_247-2" data-name="Caminho 247" class="cls-13" d="M124.66,207.106a23.632,23.632,0,0,1,7.041,0,15.06,15.06,0,0,0,3.263.282,23.851,23.851,0,0,0,3.411-.282" transform="translate(-105.117 -178.304)"/>
          <path id="Caminho_248-2" data-name="Caminho 248" class="cls-13" d="M124.66,207.106a23.632,23.632,0,0,1,7.041,0,15.06,15.06,0,0,0,3.263.282,23.851,23.851,0,0,0,3.411-.282" transform="translate(-105.117 -175.92)"/>
          <path id="Caminho_249-2" data-name="Caminho 249" class="cls-13" d="M124.66,207.106a23.632,23.632,0,0,1,7.041,0,15.06,15.06,0,0,0,3.263.282,23.851,23.851,0,0,0,3.411-.282" transform="translate(-105.117 -173.536)"/>
          <path id="Caminho_250-2" data-name="Caminho 250" class="cls-13" d="M124.66,207.106a23.632,23.632,0,0,1,7.041,0,15.06,15.06,0,0,0,3.263.282,23.851,23.851,0,0,0,3.411-.282" transform="translate(-105.117 -171.152)"/>
          <g id="Grupo_173-2" data-name="Grupo 173" transform="translate(26.304 17.548)">
            <g id="cloud-computing_1_2" data-name="cloud-computing (1)" transform="translate(0.193 0.294)">
              <path id="Caminho_233-2" data-name="Caminho 233" class="cls-10" d="M19.84,9.484h.01a4.005,4.005,0,0,1-4,4.012H4A4.005,4.005,0,0,1,0,9.484H0V9.443H0A5.041,5.041,0,0,1,4.433,4.43,5.768,5.768,0,0,1,15.754,6.007c0,.025,0,.049,0,.074a3.33,3.33,0,0,1,.658-.05A3.433,3.433,0,0,1,19.84,9.484Zm0,0" transform="translate(0 -0.222)"/>
              <g id="Grupo_164-2" data-name="Grupo 164" transform="translate(6.562 5.152)">
                <path id="Caminho_234-2" data-name="Caminho 234" class="cls-14" d="M211.839,141.982h0l-.016.017,0,0a.307.307,0,0,0-.065.136v.006a.236.236,0,0,0,0,.024c0,.006-.009.012-.009.019s-.009.008-.009.012h0c0,.007.009.014.009.021a.312.312,0,0,0,.058.152h0c.005.008.012.016.018.023l.007.007.014.015h0l.987.97a.307.307,0,0,0,.435,0,.3.3,0,0,0,0-.432l-.449-.437h1.03a1.873,1.873,0,1,0,0-3.747.308.308,0,1,0,0,.617,1.256,1.256,0,0,1,0,2.512H212.8l.453-.454a.31.31,0,1,0-.432-.443Zm0,0" transform="translate(-208.985 -137.816)"/>
                <path id="Caminho_235-2" data-name="Caminho 235" class="cls-14" d="M151.25,121.464a.309.309,0,1,0,0-.618,1.252,1.252,0,0,1,0-2.5h1.033l-.453.45a.309.309,0,1,0,.433.441l.987-.977h0l.016-.018,0,0a.307.307,0,0,0,.065-.136v-.005a.063.063,0,0,1,0-.025c0-.008.009-.012.009-.019s.009-.008.009-.012h0c0-.007-.009-.014-.009-.02a.313.313,0,0,0-.058-.152h0c-.005-.008-.012-.016-.018-.023l-.007-.007-.014-.015h0l-.987-.97a.308.308,0,0,0-.431.44l.449.44h-1.03a1.87,1.87,0,1,0,0,3.74Zm0,0" transform="translate(-149.38 -116.77)"/>
              </g>
            </g>
            <g id="cloud-computing-2" data-name="cloud-computing" transform="translate(0 0)">
              <path id="Caminho_232-2" data-name="Caminho 232" class="cls-15" d="M19.362,7.141a3.7,3.7,0,0,0-2.641-1.1c-.116,0-.235,0-.356.009A6.093,6.093,0,0,0,10.292.233,6,6,0,0,0,6.6,1.491,6.153,6.153,0,0,0,4.5,4.472,5.344,5.344,0,0,0,0,9.763v.032A4.31,4.31,0,0,0,4.307,14.1H16.161a4.309,4.309,0,0,0,4.308-4.309.271.271,0,0,0-.011-.077,3.735,3.735,0,0,0-1.093-2.577Zm-3.2,6.346H4.307A3.692,3.692,0,0,1,.616,9.812C.616,9.8.611,9.8.611,9.8S.6,9.784.6,9.776v.005H.615A4.719,4.719,0,0,1,4.778,5.066a.313.313,0,0,0,.26-.227A5.46,5.46,0,0,1,15.756,6.329v.065a.308.308,0,0,0,.368.31,3.14,3.14,0,0,1,3.718,3.1.231.231,0,0,0,.009.065,3.692,3.692,0,0,1-3.69,3.616Zm0,0" transform="translate(0 -0.233)"/>
            </g>
          </g>
        </g>
      </g>
    </g>
    <g id="Page-1" transform="translate(147.042 263.386)">
      <g id="iphone" transform="translate(0 0)">
        <path id="bezel" class="cls-21" d="M43,85.388a5.3,5.3,0,0,1-5.313,5.29H5.314A5.3,5.3,0,0,1,0,85.388V5.371A5.3,5.3,0,0,1,5.314.081H37.691A5.3,5.3,0,0,1,43,5.371V85.388Z" transform="translate(-0.001 -0.081)"/>
        <rect id="screen" class="cls-5" width="37.026" height="65.856" transform="translate(3.171 11.784)"/>
        <path id="speaker" class="cls-22" d="M62.236,23.252a.355.355,0,0,1-.324.379h-6.65a.355.355,0,0,1-.324-.379V22.4a.355.355,0,0,1,.324-.379h6.65a.355.355,0,0,1,.324.379v.853Z" transform="translate(-36.765 -14.762)"/>
        <ellipse id="camera" class="cls-23" cx="1.5" cy="1" rx="1.5" ry="1" transform="translate(20.958 2.614)"/>
        <ellipse id="lock" class="cls-23" cx="3.321" cy="3.308" rx="3.321" ry="3.308" transform="translate(18.193 80.687)"/>
        <g id="Componente_21_2-3" data-name="Componente 21 – 2" transform="translate(10.191 32.843)">
          <g id="Grupo_184-3" data-name="Grupo 184">
            <path id="Caminho_240-6" data-name="Caminho 240" class="cls-20" d="M11.431,0c6.313,0,11.431,5.4,11.431,12.059S17.744,24.119,11.431,24.119,0,18.72,0,12.059,5.118,0,11.431,0Z"/>
            <rect id="Retângulo_1474-3" data-name="Retângulo 1474" class="cls-10" width="9.619" height="11.262" transform="translate(6.335 6.522)"/>
            <g id="Caminho_241-3" data-name="Caminho 241" transform="translate(6.344 5.919)">
              <path id="Caminho_251-3" data-name="Caminho 251" class="cls-10" d="M10.121,13.028H2.3a.806.806,0,0,1-.8-.807V2.307A.806.806,0,0,1,2.3,1.5h7.817a.806.806,0,0,1,.8.807v9.914A.806.806,0,0,1,10.121,13.028Z" transform="translate(-1.123 -1.123)"/>
              <path id="Caminho_252-3" data-name="Caminho 252" class="cls-11" d="M1.18.754a.429.429,0,0,0-.426.43V11.1a.429.429,0,0,0,.426.43H9a.429.429,0,0,0,.426-.43V1.184A.429.429,0,0,0,9,.754H1.18M1.18,0H9a1.182,1.182,0,0,1,1.18,1.184V11.1A1.182,1.182,0,0,1,9,12.281H1.18A1.182,1.182,0,0,1,0,11.1V1.184A1.182,1.182,0,0,1,1.18,0Z" transform="translate(0 0)"/>
            </g>
            <path id="Caminho_242-3" data-name="Caminho 242" class="cls-12" d="M-6.191,0a1.6,1.6,0,0,1,1.4,1.744c0,.2.626.174.829,1.222A.3.3,0,0,1-4,3.233a.3.3,0,0,1-.243.123H-8.065c-.392,0-.416-.233-.4-.377.142-1.033.867-1.091.867-1.236A1.6,1.6,0,0,1-6.191,0Z" transform="translate(17.611 4.166)"/>
            <path id="Caminho_243-3" data-name="Caminho 243" class="cls-24" d="M124.66,206.946a10.268,10.268,0,0,1,3.059,0,6.543,6.543,0,0,0,1.418.122,10.36,10.36,0,0,0,1.482-.122" transform="translate(-116.168 -198.574)"/>
            <path id="Caminho_244-3" data-name="Caminho 244" class="cls-24" d="M124.66,206.946a10.268,10.268,0,0,1,3.059,0,6.543,6.543,0,0,0,1.418.122,10.36,10.36,0,0,0,1.482-.122" transform="translate(-116.168 -197.539)"/>
            <path id="Caminho_245-3" data-name="Caminho 245" class="cls-24" d="M124.66,206.946a10.268,10.268,0,0,1,3.059,0,6.543,6.543,0,0,0,1.418.122,10.36,10.36,0,0,0,1.482-.122" transform="translate(-116.168 -196.503)"/>
            <path id="Caminho_246-3" data-name="Caminho 246" class="cls-24" d="M124.66,206.946a10.268,10.268,0,0,1,3.059,0,6.543,6.543,0,0,0,1.418.122,10.36,10.36,0,0,0,1.482-.122" transform="translate(-116.168 -195.467)"/>
            <path id="Caminho_247-3" data-name="Caminho 247" class="cls-24" d="M124.66,206.946a10.268,10.268,0,0,1,3.059,0,6.543,6.543,0,0,0,1.418.122,10.36,10.36,0,0,0,1.482-.122" transform="translate(-116.168 -194.431)"/>
            <path id="Caminho_248-3" data-name="Caminho 248" class="cls-24" d="M124.66,206.946a10.268,10.268,0,0,1,3.059,0,6.543,6.543,0,0,0,1.418.122,10.36,10.36,0,0,0,1.482-.122" transform="translate(-116.168 -193.395)"/>
            <path id="Caminho_249-3" data-name="Caminho 249" class="cls-24" d="M124.66,206.946a10.268,10.268,0,0,1,3.059,0,6.543,6.543,0,0,0,1.418.122,10.36,10.36,0,0,0,1.482-.122" transform="translate(-116.168 -192.36)"/>
            <path id="Caminho_250-3" data-name="Caminho 250" class="cls-24" d="M124.66,206.946a10.268,10.268,0,0,1,3.059,0,6.543,6.543,0,0,0,1.418.122,10.36,10.36,0,0,0,1.482-.122" transform="translate(-116.168 -191.324)"/>
            <g id="Grupo_173-3" data-name="Grupo 173" transform="translate(11.429 7.625)">
              <g id="cloud-computing_1_3" data-name="cloud-computing (1)" transform="translate(0.084 0.128)">
                <path id="Caminho_233-3" data-name="Caminho 233" class="cls-10" d="M8.621,4.246h0A1.74,1.74,0,0,1,6.888,5.99H1.737A1.74,1.74,0,0,1,0,4.246H0V4.229H0A2.19,2.19,0,0,1,1.926,2.05a2.506,2.506,0,0,1,4.919.685c0,.011,0,.021,0,.032a1.447,1.447,0,0,1,.286-.022,1.492,1.492,0,0,1,1.489,1.5Zm0,0" transform="translate(0 -0.222)"/>
                <g id="Grupo_164-3" data-name="Grupo 164" transform="translate(2.851 2.239)">
                  <path id="Caminho_234-3" data-name="Caminho 234" class="cls-14" d="M211.779,140.165h0l-.007.008,0,0a.133.133,0,0,0-.028.059v0a.091.091,0,0,0,0,.011s0,.005,0,.008,0,0,0,.005h0s0,.006,0,.009a.135.135,0,0,0,.025.066h0l.008.01,0,0,.006.007h0l.429.422a.133.133,0,0,0,.189,0,.132.132,0,0,0,0-.188l-.195-.19h.448a.814.814,0,1,0,0-1.628.134.134,0,1,0,0,.268.546.546,0,0,1,0,1.092H212.2l.2-.2a.134.134,0,0,0-.188-.192Zm0,0" transform="translate(-210.539 -138.355)"/>
                  <path id="Caminho_235-3" data-name="Caminho 235" class="cls-14" d="M150.192,118.809a.134.134,0,0,0,0-.268.544.544,0,0,1,0-1.088h.449l-.2.2a.134.134,0,1,0,.188.191l.429-.425h0l.007-.008,0,0a.133.133,0,0,0,.028-.059v0a.027.027,0,0,1,0-.011s0-.005,0-.008,0,0,0-.005h0s0-.006,0-.009a.136.136,0,0,0-.025-.066h0l-.008-.01,0,0-.006-.007h0l-.429-.422a.134.134,0,0,0-.187.191l.195.191h-.448a.812.812,0,1,0,0,1.625Zm0,0" transform="translate(-149.38 -116.77)"/>
                </g>
              </g>
              <g id="cloud-computing-3" data-name="cloud-computing" transform="translate(0 0)">
                <path id="Caminho_232-3" data-name="Caminho 232" class="cls-15" d="M8.413,3.234a1.608,1.608,0,0,0-1.148-.477c-.05,0-.1,0-.155,0A2.648,2.648,0,0,0,4.472.233,2.609,2.609,0,0,0,2.866.78a2.674,2.674,0,0,0-.909,1.3A2.322,2.322,0,0,0,0,4.374v.014A1.873,1.873,0,0,0,1.871,6.26h5.15A1.872,1.872,0,0,0,8.894,4.388a.118.118,0,0,0,0-.033,1.623,1.623,0,0,0-.475-1.12ZM7.021,5.992H1.871a1.6,1.6,0,0,1-1.6-1.6s0,0,0-.007,0-.005,0-.009v0H.267A2.051,2.051,0,0,1,2.076,2.333a.136.136,0,0,0,.113-.1,2.372,2.372,0,0,1,4.657.647V2.91a.134.134,0,0,0,.16.135A1.364,1.364,0,0,1,8.621,4.392a.1.1,0,0,0,0,.028,1.6,1.6,0,0,1-1.6,1.571Zm0,0" transform="translate(0 -0.233)"/>
              </g>
            </g>
          </g>
        </g>
      </g>
      <g id="Grupo_186" data-name="Grupo 186" transform="translate(23.317 0)">
        <path id="Caminho_259-3" data-name="Caminho 259" class="cls-6" d="M367.866,6.522c-.023-.894.531-5.444-4.774-6.522H348.147l19.686,46.969h-.1Z" transform="translate(-348.147)"/>
      </g>
    </g>
    <g id="Componente_21_2-4" data-name="Componente 21 – 2" transform="translate(86.108 215.369)">
      <g id="Grupo_184-4" data-name="Grupo 184" transform="translate(0 0)">
        <g class="cls-32" transform="matrix(1, 0, 0, 1, -64.11, -28.37)">
          <path id="Caminho_240-7" data-name="Caminho 240" class="cls-20" d="M26.944,0C41.825,0,53.888,12.726,53.888,28.425S41.825,56.849,26.944,56.849,0,44.123,0,28.425,12.063,0,26.944,0Z" transform="translate(64.11 28.37)"/>
        </g>
        <rect id="Retângulo_1474-4" data-name="Retângulo 1474" class="cls-10" width="22.674" height="26.545" transform="translate(14.931 15.373)"/>
        <g class="cls-31" transform="matrix(1, 0, 0, 1, -64.11, -28.37)">
          <path id="União_8-4" data-name="União 8" class="cls-10" d="M2.781,33.08A2.786,2.786,0,0,1,0,30.29V6.922a2.786,2.786,0,0,1,2.781-2.79H8.655a.1.1,0,0,0,0-.022C8.658,1.84,10.139,0,11.965,0s3.307,1.84,3.307,4.11a.213.213,0,0,0,0,.022h5.934a2.786,2.786,0,0,1,2.781,2.79V8.329a6.243,6.243,0,0,1,4.757,5.783c.124-.009.246-.009.365-.009a3.788,3.788,0,0,1,2.7,1.125h0a3.827,3.827,0,0,1,1.12,2.639.279.279,0,0,1,.011.079,4.414,4.414,0,0,1-4.412,4.413H23.989V30.29a2.786,2.786,0,0,1-2.781,2.79Z" transform="translate(79.06 38.19)"/>
        </g>
        <g id="Caminho_241-4" data-name="Caminho 241" transform="translate(14.953 13.952)">
          <path id="Caminho_251-4" data-name="Caminho 251" class="cls-10" d="M21.819,28.671H3.393a1.9,1.9,0,0,1-1.893-1.9V3.4A1.9,1.9,0,0,1,3.393,1.5H21.819a1.9,1.9,0,0,1,1.893,1.9V26.769A1.9,1.9,0,0,1,21.819,28.671Z" transform="translate(-0.612 -0.612)"/>
          <path id="Caminho_252-4" data-name="Caminho 252" class="cls-11" d="M2.781,1.777a1.01,1.01,0,0,0-1,1.014V26.158a1.01,1.01,0,0,0,1,1.014H21.208a1.01,1.01,0,0,0,1-1.014V2.79a1.01,1.01,0,0,0-1-1.014H2.781M2.781,0H21.208a2.786,2.786,0,0,1,2.781,2.79V26.158a2.786,2.786,0,0,1-2.781,2.79H2.781A2.786,2.786,0,0,1,0,26.158V2.79A2.786,2.786,0,0,1,2.781,0Z" transform="translate(0 0)"/>
        </g>
        <path id="Caminho_242-4" data-name="Caminho 242" class="cls-12" d="M-3.1,0C-1.277,0,.2,1.84.2,4.11c0,.468,1.475.409,1.954,2.88a.715.715,0,0,1-.682.921h-9c-.923,0-.981-.55-.933-.888C-8.119,4.587-6.41,4.451-6.41,4.11-6.41,1.84-4.929,0-3.1,0Z" transform="translate(30.021 9.82)"/>
        <path id="Caminho_243-4" data-name="Caminho 243" class="cls-25" d="M124.66,207.113a24.2,24.2,0,0,1,7.211,0,15.423,15.423,0,0,0,3.342.288,24.43,24.43,0,0,0,3.494-.288" transform="translate(-104.645 -187.381)"/>
        <path id="Caminho_244-4" data-name="Caminho 244" class="cls-25" d="M124.66,207.113a24.2,24.2,0,0,1,7.211,0,15.423,15.423,0,0,0,3.342.288,24.43,24.43,0,0,0,3.494-.288" transform="translate(-104.645 -184.939)"/>
        <path id="Caminho_245-4" data-name="Caminho 245" class="cls-25" d="M124.66,207.113a24.2,24.2,0,0,1,7.211,0,15.423,15.423,0,0,0,3.342.288,24.43,24.43,0,0,0,3.494-.288" transform="translate(-104.645 -182.497)"/>
        <path id="Caminho_246-4" data-name="Caminho 246" class="cls-25" d="M124.66,207.113a24.2,24.2,0,0,1,7.211,0,15.423,15.423,0,0,0,3.342.288,24.43,24.43,0,0,0,3.494-.288" transform="translate(-104.645 -180.056)"/>
        <path id="Caminho_247-4" data-name="Caminho 247" class="cls-25" d="M124.66,207.113a24.2,24.2,0,0,1,7.211,0,15.423,15.423,0,0,0,3.342.288,24.43,24.43,0,0,0,3.494-.288" transform="translate(-104.645 -177.615)"/>
        <path id="Caminho_248-4" data-name="Caminho 248" class="cls-25" d="M124.66,207.113a24.2,24.2,0,0,1,7.211,0,15.423,15.423,0,0,0,3.342.288,24.43,24.43,0,0,0,3.494-.288" transform="translate(-104.645 -175.173)"/>
        <path id="Caminho_249-4" data-name="Caminho 249" class="cls-25" d="M124.66,207.113a24.2,24.2,0,0,1,7.211,0,15.423,15.423,0,0,0,3.342.288,24.43,24.43,0,0,0,3.494-.288" transform="translate(-104.645 -172.732)"/>
        <path id="Caminho_250-4" data-name="Caminho 250" class="cls-25" d="M124.66,207.113a24.2,24.2,0,0,1,7.211,0,15.423,15.423,0,0,0,3.342.288,24.43,24.43,0,0,0,3.494-.288" transform="translate(-104.645 -170.291)"/>
        <g id="Grupo_173-4" data-name="Grupo 173" transform="translate(26.939 17.972)">
          <g id="cloud-computing_1_4" data-name="cloud-computing (1)" transform="translate(0.197 0.301)">
            <path id="Caminho_233-4" data-name="Caminho 233" class="cls-10" d="M20.319,9.708h.011a4.1,4.1,0,0,1-4.1,4.109H4.095A4.1,4.1,0,0,1,0,9.708H0V9.666H0A5.163,5.163,0,0,1,4.54,4.532,5.908,5.908,0,0,1,16.135,6.147c0,.025,0,.05,0,.076a3.411,3.411,0,0,1,.674-.051,3.516,3.516,0,0,1,3.51,3.537Zm0,0" transform="translate(0 -0.222)"/>
            <g id="Grupo_164-4" data-name="Grupo 164" transform="translate(6.721 5.277)">
              <path id="Caminho_234-4" data-name="Caminho 234" class="cls-14" d="M211.842,142.059h0l-.016.018,0,0a.314.314,0,0,0-.066.139v.006a.243.243,0,0,0,0,.025c0,.007-.009.012-.01.019s-.009.008-.009.012h0c0,.007.009.014.009.021a.32.32,0,0,0,.059.156h0c.005.008.012.016.018.024l.007.007.014.015h0l1.011.994a.314.314,0,0,0,.446,0,.311.311,0,0,0,0-.442l-.46-.447h1.055a1.919,1.919,0,1,0,0-3.837.316.316,0,1,0,0,.632,1.286,1.286,0,0,1,0,2.573H212.83l.464-.465a.317.317,0,1,0-.443-.454Zm0,0" transform="translate(-208.918 -137.793)"/>
              <path id="Caminho_235-4" data-name="Caminho 235" class="cls-14" d="M151.3,121.577a.316.316,0,1,0,0-.632,1.283,1.283,0,1,1,0-2.565h1.058l-.464.461a.316.316,0,1,0,.443.451l1.011-1h0l.017-.018,0,0a.314.314,0,0,0,.066-.139v-.005a.064.064,0,0,1,0-.025c0-.008.009-.012.01-.019s.009-.008.009-.012h0c0-.007-.009-.014-.009-.021a.32.32,0,0,0-.059-.156h0c-.005-.008-.012-.016-.018-.024l-.007-.007-.014-.015h0l-1.011-.994a.316.316,0,0,0-.441.451l.46.451H151.3a1.915,1.915,0,1,0,0,3.83Zm0,0" transform="translate(-149.38 -116.77)"/>
            </g>
          </g>
          <g id="cloud-computing-4" data-name="cloud-computing" transform="translate(0 0)">
            <path id="Caminho_232-4" data-name="Caminho 232" class="cls-15" d="M19.83,7.308a3.79,3.79,0,0,0-2.705-1.125c-.118,0-.24,0-.365.009A6.24,6.24,0,0,0,10.541.233,6.15,6.15,0,0,0,6.756,1.522,6.3,6.3,0,0,0,4.612,4.574,5.474,5.474,0,0,0,0,9.993v.033a4.414,4.414,0,0,0,4.411,4.414h12.14a4.414,4.414,0,0,0,4.412-4.414.278.278,0,0,0-.011-.079,3.825,3.825,0,0,0-1.12-2.639Zm-3.28,6.5H4.411a3.781,3.781,0,0,1-3.78-3.763c0-.008-.005-.009-.005-.017s-.007-.012-.007-.021v.005H.63A4.833,4.833,0,0,1,4.894,5.183.321.321,0,0,0,5.16,4.95,5.592,5.592,0,0,1,16.136,6.476v.067a.316.316,0,0,0,.377.317,3.216,3.216,0,0,1,3.808,3.176.237.237,0,0,0,.009.067,3.781,3.781,0,0,1-3.779,3.7Zm0,0" transform="translate(0 -0.233)"/>
          </g>
        </g>
      </g>
    </g>
    <g id="Componente_21_2-5" data-name="Componente 21 – 2" transform="translate(157.108 296.412)">
      <g id="Grupo_184-5" data-name="Grupo 184" transform="translate(0 0)">
        <g class="cls-30" transform="matrix(1, 0, 0, 1, -135.11, -109.42)">
          <path id="Caminho_240-8" data-name="Caminho 240" class="cls-20" d="M11.519,0c6.362,0,11.519,5.441,11.519,12.152S17.881,24.3,11.519,24.3,0,18.863,0,12.152,5.157,0,11.519,0Z" transform="translate(135.11 109.42)"/>
        </g>
        <rect id="Retângulo_1474-5" data-name="Retângulo 1474" class="cls-10" width="9.693" height="11.348" transform="translate(6.383 6.572)"/>
        <g class="cls-29" transform="matrix(1, 0, 0, 1, -135.11, -109.42)">
          <path id="União_8-5" data-name="União 8" class="cls-10" d="M1.189,14.142A1.191,1.191,0,0,1,0,12.949V2.959A1.191,1.191,0,0,1,1.189,1.767H3.7a.043.043,0,0,0,0-.01A1.614,1.614,0,0,1,5.115,0,1.614,1.614,0,0,1,6.529,1.757a.091.091,0,0,0,0,.01H9.067a1.191,1.191,0,0,1,1.189,1.193v.6a2.669,2.669,0,0,1,2.034,2.472c.053,0,.105,0,.156,0A1.62,1.62,0,0,1,13.6,6.51h0a1.636,1.636,0,0,1,.479,1.128.119.119,0,0,1,0,.034A1.887,1.887,0,0,1,12.2,9.559H10.256v3.391a1.191,1.191,0,0,1-1.189,1.193Z" transform="translate(141.5 113.61)"/>
        </g>
        <g id="Caminho_241-5" data-name="Caminho 241" transform="translate(6.392 5.965)">
          <path id="Caminho_251-5" data-name="Caminho 251" class="cls-10" d="M10.187,13.116H2.309A.812.812,0,0,1,1.5,12.3V2.313A.812.812,0,0,1,2.309,1.5h7.878A.812.812,0,0,1,11,2.313V12.3A.812.812,0,0,1,10.187,13.116Z" transform="translate(-1.12 -1.12)"/>
          <path id="Caminho_252-5" data-name="Caminho 252" class="cls-11" d="M1.189.759a.432.432,0,0,0-.43.433v9.99a.432.432,0,0,0,.43.433H9.067a.432.432,0,0,0,.43-.433V1.193a.432.432,0,0,0-.43-.433H1.189m0-.759H9.067a1.191,1.191,0,0,1,1.189,1.193v9.99a1.191,1.191,0,0,1-1.189,1.193H1.189A1.191,1.191,0,0,1,0,11.183V1.193A1.191,1.191,0,0,1,1.189,0Z" transform="translate(0 0)"/>
        </g>
        <path id="Caminho_242-5" data-name="Caminho 242" class="cls-12" d="M-6.173,0A1.614,1.614,0,0,1-4.759,1.757c0,.2.63.175.835,1.231a.306.306,0,0,1-.047.27.306.306,0,0,1-.245.124H-8.062c-.395,0-.419-.235-.4-.38.143-1.041.874-1.1.874-1.245A1.614,1.614,0,0,1-6.173,0Z" transform="translate(17.681 4.198)"/>
        <path id="Caminho_243-5" data-name="Caminho 243" class="cls-26" d="M124.66,206.947a10.347,10.347,0,0,1,3.083,0,6.594,6.594,0,0,0,1.429.123,10.443,10.443,0,0,0,1.494-.123" transform="translate(-116.103 -198.511)"/>
        <path id="Caminho_244-5" data-name="Caminho 244" class="cls-26" d="M124.66,206.947a10.347,10.347,0,0,1,3.083,0,6.594,6.594,0,0,0,1.429.123,10.443,10.443,0,0,0,1.494-.123" transform="translate(-116.103 -197.467)"/>
        <path id="Caminho_245-5" data-name="Caminho 245" class="cls-26" d="M124.66,206.947a10.347,10.347,0,0,1,3.083,0,6.594,6.594,0,0,0,1.429.123,10.443,10.443,0,0,0,1.494-.123" transform="translate(-116.103 -196.424)"/>
        <path id="Caminho_246-5" data-name="Caminho 246" class="cls-26" d="M124.66,206.947a10.347,10.347,0,0,1,3.083,0,6.594,6.594,0,0,0,1.429.123,10.443,10.443,0,0,0,1.494-.123" transform="translate(-116.103 -195.38)"/>
        <path id="Caminho_247-5" data-name="Caminho 247" class="cls-26" d="M124.66,206.947a10.347,10.347,0,0,1,3.083,0,6.594,6.594,0,0,0,1.429.123,10.443,10.443,0,0,0,1.494-.123" transform="translate(-116.103 -194.336)"/>
        <path id="Caminho_248-5" data-name="Caminho 248" class="cls-26" d="M124.66,206.947a10.347,10.347,0,0,1,3.083,0,6.594,6.594,0,0,0,1.429.123,10.443,10.443,0,0,0,1.494-.123" transform="translate(-116.103 -193.292)"/>
        <path id="Caminho_249-5" data-name="Caminho 249" class="cls-26" d="M124.66,206.947a10.347,10.347,0,0,1,3.083,0,6.594,6.594,0,0,0,1.429.123,10.443,10.443,0,0,0,1.494-.123" transform="translate(-116.103 -192.249)"/>
        <path id="Caminho_250-5" data-name="Caminho 250" class="cls-26" d="M124.66,206.947a10.347,10.347,0,0,1,3.083,0,6.594,6.594,0,0,0,1.429.123,10.443,10.443,0,0,0,1.494-.123" transform="translate(-116.103 -191.205)"/>
        <g id="Grupo_173-5" data-name="Grupo 173" transform="translate(11.517 7.683)">
          <g id="cloud-computing_1_5" data-name="cloud-computing (1)" transform="translate(0.084 0.129)">
            <path id="Caminho_233-5" data-name="Caminho 233" class="cls-10" d="M8.687,4.277h0A1.754,1.754,0,0,1,6.941,6.034H1.751A1.754,1.754,0,0,1,0,4.277H0V4.259H0A2.207,2.207,0,0,1,1.941,2.064a2.526,2.526,0,0,1,4.957.69c0,.011,0,.022,0,.032a1.458,1.458,0,0,1,.288-.022,1.5,1.5,0,0,1,1.5,1.512Zm0,0" transform="translate(0 -0.222)"/>
            <g id="Grupo_164-5" data-name="Grupo 164" transform="translate(2.873 2.256)">
              <path id="Caminho_234-5" data-name="Caminho 234" class="cls-14" d="M211.78,140.176h0l-.007.008,0,0a.134.134,0,0,0-.028.059v0s0,.007,0,.011,0,.005,0,.008,0,0,0,.005h0s0,.006,0,.009a.137.137,0,0,0,.025.067h0l.008.01,0,0,.006.007h0l.432.425a.134.134,0,0,0,.191,0,.133.133,0,0,0,0-.189l-.2-.191h.451a.82.82,0,1,0,0-1.64.135.135,0,0,0,0,.27.55.55,0,1,1,0,1.1H212.2l.2-.2a.136.136,0,1,0-.189-.194Zm0,0" transform="translate(-210.53 -138.352)"/>
              <path id="Caminho_235-5" data-name="Caminho 235" class="cls-14" d="M150.2,118.825a.135.135,0,0,0,0-.27.548.548,0,0,1,0-1.1h.452l-.2.2a.135.135,0,1,0,.189.193l.432-.428h0l.007-.008,0,0a.135.135,0,0,0,.028-.059v0a.028.028,0,0,1,0-.011s0-.005,0-.008,0,0,0-.005h0s0-.006,0-.009a.137.137,0,0,0-.025-.067h0l-.008-.01,0,0-.006-.007h0l-.432-.425a.135.135,0,0,0-.189.193l.2.193H150.2a.819.819,0,1,0,0,1.637Zm0,0" transform="translate(-149.38 -116.77)"/>
            </g>
          </g>
          <g id="cloud-computing-5" data-name="cloud-computing" transform="translate(0 0)">
            <path id="Caminho_232-5" data-name="Caminho 232" class="cls-15" d="M8.477,3.258a1.62,1.62,0,0,0-1.156-.481c-.051,0-.1,0-.156,0A2.668,2.668,0,0,0,4.506.233,2.629,2.629,0,0,0,2.888.784a2.694,2.694,0,0,0-.916,1.305A2.34,2.34,0,0,0,0,4.405v.014A1.887,1.887,0,0,0,1.886,6.306h5.19A1.887,1.887,0,0,0,8.962,4.42a.119.119,0,0,0,0-.034,1.635,1.635,0,0,0-.479-1.128Zm-1.4,2.778H1.886A1.616,1.616,0,0,1,.27,4.427s0,0,0-.007,0-.005,0-.009v0H.269A2.066,2.066,0,0,1,2.092,2.349a.137.137,0,0,0,.114-.1A2.391,2.391,0,0,1,6.9,2.9V2.93a.135.135,0,0,0,.161.136A1.375,1.375,0,0,1,8.687,4.424a.1.1,0,0,0,0,.029A1.616,1.616,0,0,1,7.076,6.036Zm0,0" transform="translate(0 -0.233)"/>
          </g>
        </g>
      </g>
    </g>
    <g id="Componente_21_2-6" data-name="Componente 21 – 2" transform="translate(225.108 255.77)">
      <g id="Grupo_184-6" data-name="Grupo 184" transform="translate(0 0)">
        <g class="cls-28" transform="matrix(1, 0, 0, 1, -203.11, -68.77)">
          <path id="Caminho_240-9" data-name="Caminho 240" class="cls-20" d="M26.754,0C41.531,0,53.509,12.636,53.509,28.225S41.531,56.449,26.754,56.449,0,43.813,0,28.225,11.978,0,26.754,0Z" transform="translate(203.11 68.77)"/>
        </g>
        <rect id="Retângulo_1474-6" data-name="Retângulo 1474" class="cls-10" width="22.514" height="26.358" transform="translate(14.826 15.265)"/>
        <g class="cls-27" transform="matrix(1, 0, 0, 1, -203.11, -68.77)">
          <path id="União_8-6" data-name="União 8" class="cls-10" d="M2.762,32.847A2.766,2.766,0,0,1,0,30.077V6.874A2.766,2.766,0,0,1,2.762,4.1H8.594a.1.1,0,0,0,0-.022C8.6,1.827,10.067,0,11.881,0s3.284,1.827,3.284,4.081a.211.211,0,0,0,0,.022h5.893a2.766,2.766,0,0,1,2.762,2.77v1.4a6.2,6.2,0,0,1,4.724,5.742c.123-.009.244-.009.362-.009a3.762,3.762,0,0,1,2.686,1.117h0a3.8,3.8,0,0,1,1.112,2.621.277.277,0,0,1,.011.078A4.382,4.382,0,0,1,28.336,22.2H23.82v7.875a2.766,2.766,0,0,1-2.762,2.77Z" transform="translate(217.96 78.52)"/>
        </g>
        <g id="Caminho_241-6" data-name="Caminho 241" transform="translate(14.847 13.854)">
          <path id="Caminho_251-6" data-name="Caminho 251" class="cls-10" d="M21.676,28.48H3.38A1.886,1.886,0,0,1,1.5,26.591V3.388A1.886,1.886,0,0,1,3.38,1.5h18.3a1.886,1.886,0,0,1,1.88,1.888v23.2A1.886,1.886,0,0,1,21.676,28.48Z" transform="translate(-0.618 -0.618)"/>
          <path id="Caminho_252-6" data-name="Caminho 252" class="cls-11" d="M2.762,1.764a1,1,0,0,0-1,1.006v23.2a1,1,0,0,0,1,1.006h18.3a1,1,0,0,0,1-1.006V2.77a1,1,0,0,0-1-1.006H2.762M2.762,0h18.3A2.766,2.766,0,0,1,23.82,2.77v23.2a2.766,2.766,0,0,1-2.762,2.77H2.762A2.766,2.766,0,0,1,0,25.973V2.77A2.766,2.766,0,0,1,2.762,0Z" transform="translate(0 0)"/>
        </g>
        <path id="Caminho_242-6" data-name="Caminho 242" class="cls-12" d="M-3.141,0C-1.327,0,.143,1.827.143,4.081c0,.465,1.464.406,1.94,2.859a.71.71,0,0,1-.677.915H-7.527c-.917,0-.974-.546-.927-.882.333-2.418,2.029-2.554,2.029-2.892C-6.425,1.827-4.954,0-3.141,0Z" transform="translate(29.869 9.75)"/>
        <path id="Caminho_243-6" data-name="Caminho 243" class="cls-25" d="M124.66,207.111a24.032,24.032,0,0,1,7.16,0,15.315,15.315,0,0,0,3.318.286,24.26,24.26,0,0,0,3.469-.286" transform="translate(-104.786 -187.517)"/>
        <path id="Caminho_244-6" data-name="Caminho 244" class="cls-25" d="M124.66,207.111a24.032,24.032,0,0,1,7.16,0,15.315,15.315,0,0,0,3.318.286,24.26,24.26,0,0,0,3.469-.286" transform="translate(-104.786 -185.093)"/>
        <path id="Caminho_245-6" data-name="Caminho 245" class="cls-25" d="M124.66,207.111a24.032,24.032,0,0,1,7.16,0,15.315,15.315,0,0,0,3.318.286,24.26,24.26,0,0,0,3.469-.286" transform="translate(-104.786 -182.669)"/>
        <path id="Caminho_246-6" data-name="Caminho 246" class="cls-25" d="M124.66,207.111a24.032,24.032,0,0,1,7.16,0,15.315,15.315,0,0,0,3.318.286,24.26,24.26,0,0,0,3.469-.286" transform="translate(-104.786 -180.245)"/>
        <path id="Caminho_247-6" data-name="Caminho 247" class="cls-25" d="M124.66,207.111a24.032,24.032,0,0,1,7.16,0,15.315,15.315,0,0,0,3.318.286,24.26,24.26,0,0,0,3.469-.286" transform="translate(-104.786 -177.821)"/>
        <path id="Caminho_248-6" data-name="Caminho 248" class="cls-25" d="M124.66,207.111a24.032,24.032,0,0,1,7.16,0,15.315,15.315,0,0,0,3.318.286,24.26,24.26,0,0,0,3.469-.286" transform="translate(-104.786 -175.396)"/>
        <path id="Caminho_249-6" data-name="Caminho 249" class="cls-25" d="M124.66,207.111a24.032,24.032,0,0,1,7.16,0,15.315,15.315,0,0,0,3.318.286,24.26,24.26,0,0,0,3.469-.286" transform="translate(-104.786 -172.972)"/>
        <path id="Caminho_250-6" data-name="Caminho 250" class="cls-25" d="M124.66,207.111a24.032,24.032,0,0,1,7.16,0,15.315,15.315,0,0,0,3.318.286,24.26,24.26,0,0,0,3.469-.286" transform="translate(-104.786 -170.548)"/>
        <g id="Grupo_173-6" data-name="Grupo 173" transform="translate(26.749 17.846)">
          <g id="cloud-computing_1_6" data-name="cloud-computing (1)" transform="translate(0.196 0.299)">
            <path id="Caminho_233-6" data-name="Caminho 233" class="cls-10" d="M20.176,9.641h.011a4.073,4.073,0,0,1-4.067,4.08H4.066A4.073,4.073,0,0,1,0,9.641H0V9.6H0A5.126,5.126,0,0,1,4.508,4.5,5.866,5.866,0,0,1,16.021,6.1c0,.025,0,.05,0,.075a3.387,3.387,0,0,1,.669-.051,3.491,3.491,0,0,1,3.486,3.512Zm0,0" transform="translate(0 -0.222)"/>
            <g id="Grupo_164-6" data-name="Grupo 164" transform="translate(6.673 5.24)">
              <path id="Caminho_234-6" data-name="Caminho 234" class="cls-14" d="M211.841,142.036h0l-.016.018,0,0a.312.312,0,0,0-.066.138v.006a.244.244,0,0,0,0,.025c0,.007-.009.012-.009.019s-.009.008-.009.012h0c0,.007.009.014.009.021a.318.318,0,0,0,.059.155h0c.005.008.012.016.018.024l.007.007.014.015h0l1,.987a.312.312,0,0,0,.443,0,.309.309,0,0,0,0-.439l-.456-.444h1.048a1.905,1.905,0,1,0,0-3.81.314.314,0,1,0,0,.627,1.277,1.277,0,0,1,0,2.555h-1.052l.461-.462a.315.315,0,0,0-.44-.45Zm0,0" transform="translate(-208.938 -137.8)"/>
              <path id="Caminho_235-6" data-name="Caminho 235" class="cls-14" d="M151.282,121.543a.314.314,0,1,0,0-.628,1.274,1.274,0,1,1,0-2.547h1.05l-.461.458a.314.314,0,1,0,.44.448l1-.994h0l.016-.018,0,0a.312.312,0,0,0,.066-.138v-.005a.064.064,0,0,1,0-.025c0-.008.009-.012.009-.019s.009-.008.009-.012h0c0-.007-.009-.014-.009-.021a.318.318,0,0,0-.059-.155h0c-.005-.008-.012-.016-.018-.023l-.007-.007-.014-.015h0l-1-.987a.313.313,0,0,0-.438.447l.456.447h-1.048a1.9,1.9,0,1,0,0,3.8Zm0,0" transform="translate(-149.38 -116.77)"/>
            </g>
          </g>
          <g id="cloud-computing-6" data-name="cloud-computing" transform="translate(0 0)">
            <path id="Caminho_232-6" data-name="Caminho 232" class="cls-15" d="M19.69,7.258A3.763,3.763,0,0,0,17,6.141c-.118,0-.239,0-.362.009A6.2,6.2,0,0,0,10.467.233a6.106,6.106,0,0,0-3.759,1.28A6.258,6.258,0,0,0,4.579,4.544,5.435,5.435,0,0,0,0,9.924v.032a4.383,4.383,0,0,0,4.38,4.383H16.434a4.382,4.382,0,0,0,4.381-4.382.276.276,0,0,0-.011-.078,3.8,3.8,0,0,0-1.112-2.621Zm-3.257,6.453H4.379A3.754,3.754,0,0,1,.626,9.975c0-.008-.005-.009-.005-.016S.614,9.946.614,9.938v.005H.626A4.8,4.8,0,0,1,4.859,5.148a.319.319,0,0,0,.265-.231,5.553,5.553,0,0,1,10.9,1.515V6.5a.313.313,0,0,0,.374.315,3.193,3.193,0,0,1,3.781,3.153.236.236,0,0,0,.009.066,3.754,3.754,0,0,1-3.753,3.677Zm0,0" transform="translate(0 -0.233)"/>
          </g>
        </g>
      </g>
    </g>
  </g>
</svg>
