<svg xmlns="http://www.w3.org/2000/svg" width="33.866" height="14.219" viewBox="0 0 33.866 14.219">
  <defs>
    <style>
      .cls-1 {
        fill: #939393;
      }
    </style>
  </defs>
  <g id="Grupo_489" data-name="Grupo 489" transform="translate(0 0)">
    <g id="carnival-mask-silhouette" transform="translate(0 0)">
      <path id="Caminho_995" data-name="Caminho 995" class="cls-1" d="M32.643,114.094a14.98,14.98,0,0,0-7.707-2.122,23.746,23.746,0,0,0-4.683.807c-.853.2-1.706.409-2.554.631a3.519,3.519,0,0,1-.765.107,3.486,3.486,0,0,1-.765-.107c-.849-.223-1.7-.429-2.554-.631a23.772,23.772,0,0,0-4.683-.807,14.982,14.982,0,0,0-7.707,2.122c-1.092.593-1.377,1.119-1.153,2.085A16.124,16.124,0,0,0,1.2,119.524a30.51,30.51,0,0,0,1.5,2.766,7.1,7.1,0,0,0,3.549,3.375,7.868,7.868,0,0,0,3.155.508,4.467,4.467,0,0,0,1.691-.563,9.939,9.939,0,0,0,1.565-.87,11.781,11.781,0,0,0,1.4-1.112,8.837,8.837,0,0,1,2.871-1.929,8.835,8.835,0,0,1,2.871,1.929,11.748,11.748,0,0,0,1.4,1.112,9.963,9.963,0,0,0,1.565.87,4.463,4.463,0,0,0,1.691.563,7.869,7.869,0,0,0,3.155-.508,7.094,7.094,0,0,0,3.549-3.375,30.455,30.455,0,0,0,1.5-2.766,16.155,16.155,0,0,0,1.131-3.345C34.019,115.213,33.735,114.687,32.643,114.094Zm-24.148,6.5A6.565,6.565,0,0,1,5.2,117.4a6.566,6.566,0,0,1,4.557-.526,6.562,6.562,0,0,1,3.291,3.2A6.564,6.564,0,0,1,8.495,120.595Zm16.878,0a6.566,6.566,0,0,1-4.557-.526,6.564,6.564,0,0,1,3.292-3.2,6.565,6.565,0,0,1,4.556.526A6.563,6.563,0,0,1,25.372,120.595Z" transform="translate(-0.001 -111.966)"/>
    </g>
  </g>
</svg>
