<svg xmlns="http://www.w3.org/2000/svg" width="10.754" height="12.766" viewBox="0 0 10.754 12.766">
  <defs>
    <style>
      .cls-1 {
        fill: #fefeff;
      }
    </style>
  </defs>
  <path id="Apple_Logo" data-name="Apple Logo" class="cls-1" d="M14.225,10.961a6.93,6.93,0,0,1-.687,1.234,6.264,6.264,0,0,1-.884,1.069,1.717,1.717,0,0,1-1.136.5,2.85,2.85,0,0,1-1.05-.251,3.01,3.01,0,0,0-1.13-.25,3.111,3.111,0,0,0-1.161.25,3.122,3.122,0,0,1-1.006.264,1.615,1.615,0,0,1-1.161-.514,6.58,6.58,0,0,1-.925-1.106,7.646,7.646,0,0,1-.979-1.943A7.111,7.111,0,0,1,3.7,7.9a4.229,4.229,0,0,1,.554-2.211A3.261,3.261,0,0,1,5.414,4.512a3.129,3.129,0,0,1,1.572-.444A3.7,3.7,0,0,1,8.2,4.351a3.9,3.9,0,0,0,.964.284,5.761,5.761,0,0,0,1.07-.334,3.537,3.537,0,0,1,1.454-.258,3.086,3.086,0,0,1,2.418,1.273,2.69,2.69,0,0,0-1.426,2.443,2.7,2.7,0,0,0,.885,2.031,2.9,2.9,0,0,0,.884.58Q14.344,10.679,14.225,10.961ZM11.761,1.267a2.723,2.723,0,0,1-.7,1.787,2.38,2.38,0,0,1-1.976.975,2.012,2.012,0,0,1-.015-.242,2.8,2.8,0,0,1,.741-1.805,2.846,2.846,0,0,1,.9-.677,2.692,2.692,0,0,1,1.032-.292,2.268,2.268,0,0,1,.014.255Z" transform="translate(-3.696 -1.012)"/>
</svg>
