<svg id="Grupo_505" data-name="Grupo 505" xmlns="http://www.w3.org/2000/svg" width="20.465" height="17.658" viewBox="0 0 20.465 17.658">
  <defs>
    <style>
      .cls-1 {
        fill: #505050;
      }
    </style>
  </defs>
  <g id="Grupo_479" data-name="Grupo 479" transform="translate(6.689 14.728)">
    <path id="Caminho_254" data-name="Caminho 254" class="cls-1" d="M202.414,434.742a3.065,3.065,0,0,0,.589-.054c.124-.03.142-.055.142-.075a.083.083,0,0,0-.033-.056l-.621-.569a1.023,1.023,0,0,1-.311-.6c-.036-.209-.161-1.578-.161-1.578h-4.789s-.126,1.369-.161,1.578a1.023,1.023,0,0,1-.311.6l-.621.569a.083.083,0,0,0-.033.056c0,.02.018.045.142.075a3.065,3.065,0,0,0,.589.054Z" transform="translate(-196.102 -431.812)"/>
  </g>
  <path id="Subtração_7" data-name="Subtração 7" class="cls-1" d="M19.9,14.732H.569A.57.57,0,0,1,0,14.163V.569A.57.57,0,0,1,.569,0H19.9a.57.57,0,0,1,.569.569V14.163A.57.57,0,0,1,19.9,14.732Zm-9.874-1.574a.243.243,0,0,0-.2.1.415.415,0,0,0-.078.26.708.708,0,0,0,.1.351c.068.12.138.181.209.181a.245.245,0,0,0,.092-.024.276.276,0,0,1,.1-.023.316.316,0,0,1,.1.023.312.312,0,0,0,.1.022c.059,0,.12-.046.18-.137a.7.7,0,0,0,.086-.174.212.212,0,0,1-.11-.088.267.267,0,0,1-.048-.155.247.247,0,0,1,.046-.144.48.48,0,0,1,.08-.082.376.376,0,0,0-.073-.07.253.253,0,0,0-.149-.045.394.394,0,0,0-.12.024.345.345,0,0,1-.1.024.459.459,0,0,1-.1-.021A.437.437,0,0,0,10.022,13.158Zm.428-.268a.279.279,0,0,0-.174.1.314.314,0,0,0-.054.179.365.365,0,0,0,.072-.012.2.2,0,0,0,.075-.05.278.278,0,0,0,.064-.1.254.254,0,0,0,.021-.1.107.107,0,0,0,0-.011.094.094,0,0,0,0-.018ZM.962,1.022V11.5H19.491V1.022Z"/>
</svg>
